<svg xmlns="http://www.w3.org/2000/svg" viewBox="0 0 1333.06 1920"><defs><style>.cls-1{fill:#00843d;}.cls-2{fill:#fff;}</style></defs><g id="Layer_2" data-name="Layer 2"><g id="Layer_1-2" data-name="Layer 1"><path class="cls-1" d="M1333.06,1086.84A236.11,236.11,0,0,1,1096.94,1323H10.09V236.12A236.13,236.13,0,0,1,246.21,0H1333.06Z"/><path class="cls-2" d="M1148,1028.59c0,78.44-44.72,113.64-126.83,113.64H903.68c-82.12,0-130.24-38.85-130.24-118V898.51c0-79.18,48.12-118.46,130.24-118.46h117.51c82.11,0,126.83,35.63,126.83,114.07v3.24h84.32l.17-196.51h-79.67v56c-13.47-55.71-96.93-55.71-118.28-55.71H890.47c-123.17,0-197.22,71.54-197.22,194.71V1028c0,123.16,74,194.28,197.22,194.28h144.64c123.18,0,197.23-67.46,197.23-190.63l.17-8.78H1148Z"/><path class="cls-2" d="M110.64,621.79h79.67v-56c11.83,56.67,74.24,55.68,97.94,55.68H473.94c109.24,0,176-42.53,176-145.91V460.76c0-68.91-46.19-114.38-121-124.65L265.51,308.24c-54.26-8.79-63.78-38.85-63.78-61.58v-8.79c0-36.66,19.06-57.83,72.58-57.83H460c55,0,88.71,11.65,88.71,65.9v20h83.16V100.55h-79.5v56c-6.78-56-75.89-56-96.92-56H289c-112.92,0-171.57,48.61-171.57,140.25v18.32c0,63.81,39.6,112.92,130.5,126.11L493,409.44c58.65,9.53,72.58,32.24,72.58,66v6c0,40.31-22.72,60.71-86.52,60.71H289.7c-55,0-94.58-21-94.58-78.92V445H110.64Z"/><polygon class="cls-2" points="311.73 701.17 110.64 701.17 110.64 780.55 171.49 780.55 171.49 1143.04 110.64 1143.04 110.64 1222.42 631.88 1222.42 631.88 1022.84 552.51 1022.84 552.51 1143.04 250.87 1143.04 250.87 780.55 311.73 780.55 311.73 701.17"/><polygon class="cls-2" points="1047.67 321.48 851.5 321.48 851.5 179.92 1153.13 179.92 1153.13 266.09 1232.51 266.09 1232.34 100.55 711.26 100.55 711.26 179.92 772.12 179.92 772.12 542.41 711.26 542.41 711.26 621.79 1232.51 621.79 1232.51 455.96 1153.13 455.96 1153.13 542.41 851.5 542.41 851.5 400.86 1047.67 400.86 1047.67 321.48"/><path class="cls-1" d="M16.55,1496.08c9.44,10.67,22,15.62,33.25,15.62,9.29,0,15.47-3.4,15.47-9.74,0-7.12-7.89-8-24.9-11.45-16.24-3.24-34-9.28-34-31.86,0-22.74,19.65-36.81,44.24-36.81,19.49,0,34.8,7.58,43.62,17.17l-16.4,20.41a37.21,37.21,0,0,0-28-12.68c-8.19,0-13.76,3.1-13.76,8.82,0,6.34,6.8,7.42,20.26,10.21,17.32,3.55,39,8.35,39,33.1,0,24-21,37.73-46.71,37.73-18.1,0-39.29-7.11-48.57-18.55Z"/><path class="cls-1" d="M154.68,1421.84c32.17,0,54.44,24,54.44,57.38s-22.27,57.38-54.44,57.38-54.29-24-54.29-57.38S122.66,1421.84,154.68,1421.84Zm0,26.29c-14.07,0-23.82,11.76-23.82,31.09s9.75,31.09,23.82,31.09c14.23,0,24-11.75,24-31.09S168.91,1448.13,154.68,1448.13Z"/><path class="cls-1" d="M218.42,1489.43v-65.74h30.16v64.81c0,15,7,21.65,17.94,21.65,11.14,0,17.94-6.64,17.94-21.65v-64.81h30.32v65.74c0,30.63-18.72,47-48.26,47S218.42,1520.06,218.42,1489.43Z"/><path class="cls-1" d="M386.56,1449.37v85.38H356.24v-85.38H323.61v-25.68H419.2v25.68Z"/><path class="cls-1" d="M529,1423.69v111.06H498.71v-43.62H459.58v43.62H429.26V1423.69h30.32v41.92h39.13v-41.92Z"/><path class="cls-1" d="M625.09,1423.69v25.68h-51.2v16.55h42.38V1491H573.89v18.09h51.2v25.68H544.2V1423.69Z"/><path class="cls-1" d="M667.94,1534.75H637.62V1423.69h48.57c27.38,0,44.24,13.31,44.24,37.13,0,15.77-8,27.53-22.12,33.25l25.52,40.68H699.18l-21.8-36.81h-9.44Zm16.7-60.79c10.68,0,15.78-5,15.78-12.37,0-7.89-5.1-12.53-15.78-12.53h-16.7V1474Z"/><path class="cls-1" d="M841.65,1534.75H815.36l-44.24-64.34v64.34H742.2V1423.69h29.69l40.68,60.48v-60.48h29.08Z"/><path class="cls-1" d="M91.1,1551.49v25.68H39.91v16.55H82.29v25H39.91v18.1H91.1v25.68H10.21V1551.49Z"/><path class="cls-1" d="M203.1,1662.55H176.8l-44.23-64.35v64.35H103.64V1551.49h29.7L174,1612v-60.48H203.1Z"/><path class="cls-1" d="M251.37,1662.55l-40.22-111.06h32.33l24,71.46,24.13-71.46h31.09l-40.21,111.06Z"/><path class="cls-1" d="M361,1662.55H330.73V1551.49H361Z"/><path class="cls-1" d="M406.52,1662.55H376.2V1551.49h48.57c27.38,0,44.24,13.3,44.24,37.13,0,15.77-8.05,27.53-22.12,33.25l25.52,40.68H437.76L416,1625.74h-9.43Zm16.7-60.79c10.68,0,15.78-5,15.78-12.37,0-7.89-5.1-12.53-15.78-12.53h-16.7v24.9Z"/><path class="cls-1" d="M530,1549.64c32.17,0,54.44,24,54.44,57.38S562.13,1664.4,530,1664.4s-54.29-24-54.29-57.38S497.94,1549.64,530,1549.64Zm0,26.29c-14.07,0-23.82,11.76-23.82,31.09s9.75,31.09,23.82,31.09c14.23,0,24-11.76,24-31.09S544.19,1575.93,530,1575.93Z"/><path class="cls-1" d="M694.39,1662.55H668.1l-44.24-64.35v64.35H594.94V1551.49h29.69L665.31,1612v-60.48h29.08Z"/><path class="cls-1" d="M759.68,1662.55l-21-70.22v70.22H709.56V1551.49h42.53l18.1,63.73,18.1-63.73h42.07v111.06H801v-70.22l-21,70.22Z"/><path class="cls-1" d="M926.43,1551.49v25.68h-51.2v16.55h42.38v25H875.23v18.1h51.2v25.68h-80.9V1551.49Z"/><path class="cls-1" d="M1038.42,1662.55h-26.29l-44.24-64.35v64.35H939V1551.49h29.69l40.68,60.48v-60.48h29.08Z"/><path class="cls-1" d="M1111.44,1577.17v85.38h-30.32v-85.38h-32.63v-25.68h95.58v25.68Z"/><path class="cls-1" d="M1206.73,1551.49l40.06,111.06H1216l-7.12-20.11h-40.21l-7,20.11h-30l40.06-111.06Zm-29.54,66.67h23.2l-11.6-33.1Z"/><path class="cls-1" d="M1254.84,1551.49h30.32v85.38H1333v25.68h-78.11Z"/><path class="cls-1" d="M10.21,1679.29H40.53v85.38H88.32v25.68H10.21Z"/><path class="cls-1" d="M166.75,1679.29l40.06,111.06H176l-7.12-20.11H128.7l-7,20.11h-30l40.06-111.06ZM137.2,1746h23.2l-11.59-33.1Z"/><path class="cls-1" d="M284.62,1679.29l15.62,65.89,15.47-65.89h30.78l-29.23,111.06H288.18l-16.4-65.59-16.39,65.59H226.31l-29.23-111.06h31.55l15.62,65.89,15.47-65.89Z"/><path class="cls-1" d="M58.78,1893.71c10.21,0,17.47-6.81,19.48-17.79l28.46,9.43c-6.8,20.88-22.89,34.65-47.79,34.65-31.24,0-53.36-24-53.36-57.38s22.12-57.39,53.36-57.39c24.9,0,41,13.77,47.79,34.65l-28.46,9.43c-2-11-9.27-17.78-19.48-17.78-13.46,0-22.89,12.06-22.89,31.09S45.32,1893.71,58.78,1893.71Z"/><path class="cls-1" d="M196.14,1807.09v25.68h-51.2v16.54h42.38v25.06H144.94v18.1h51.2v25.67h-80.9V1807.09Z"/><path class="cls-1" d="M308.13,1918.14H281.84L237.6,1853.8v64.34H208.67V1807.09h29.7l40.68,60.48v-60.48h29.08Z"/><path class="cls-1" d="M381.15,1832.77v85.37H350.83v-85.37H318.2v-25.68h95.58v25.68Z"/><path class="cls-1" d="M504.74,1807.09v25.68h-51.2v16.54h42.39v25.06H453.54v18.1h51.2v25.67H423.85V1807.09Z"/><path class="cls-1" d="M547.6,1918.14H517.28V1807.09h48.57c27.37,0,44.23,13.3,44.23,37.12,0,15.78-8,27.53-22.12,33.26l25.53,40.67H578.84L557,1881.33H547.6Zm16.7-60.78c10.67,0,15.78-4.95,15.78-12.38,0-7.88-5.11-12.52-15.78-12.52H547.6v24.9Z"/></g></g></svg>